<svg width="24" height="24" viewBox="0 0 24 24" fill="none" xmlns="http://www.w3.org/2000/svg">
  <path d="M12 2L3.5 7V11.5C3.5 16.5 6.5 21.16 12 22C17.5 21.16 20.5 16.5 20.5 11.5V7L12 2Z" fill="#FF6B6B" stroke="#C92A2A" stroke-width="1.5"/>
  <path d="M12 12C12.83 12 13.5 11.33 13.5 10.5C13.5 9.67 12.83 9 12 9C11.17 9 10.5 9.67 10.5 10.5C10.5 11.33 11.17 12 12 12Z" fill="white"/>
  <path d="M12 13C10.67 13 9.5 13.67 9 14.65C9.66 15.34 10.77 15.85 12 15.85C13.23 15.85 14.34 15.34 15 14.65C14.5 13.67 13.33 13 12 13Z" fill="white"/>
  <circle cx="8" cy="10" r="1" fill="white"/>
  <circle cx="16" cy="10" r="1" fill="white"/>
</svg>